<?xml version="1.0" standalone="no"?>
<!DOCTYPE svg PUBLIC "-//W3C//DTD SVG 20010904//EN"
 "http://www.w3.org/TR/2001/REC-SVG-20010904/DTD/svg10.dtd">
<svg version="1.0" xmlns="http://www.w3.org/2000/svg"
 width="512.000000pt" height="512.000000pt" viewBox="0 0 512.000000 512.000000"
 preserveAspectRatio="xMidYMid meet">

<g transform="translate(0.000000,512.000000) scale(0.100000,-0.100000)"
fill="#198754" stroke="none">
<path d="M2380 5053 c-86 -8 -205 -27 -345 -55 -89 -18 -307 -89 -430 -140
-129 -54 -278 -134 -380 -203 -182 -125 -413 -323 -479 -410 -17 -23 -66 -85
-108 -137 -264 -328 -425 -695 -509 -1165 -27 -150 -37 -488 -19 -643 16 -140
61 -362 99 -485 101 -325 233 -572 464 -860 294 -367 683 -633 1147 -784 474
-155 961 -159 1440 -14 147 44 214 71 375 147 234 112 413 238 618 435 362
349 588 746 707 1241 45 190 61 337 61 570 0 235 -9 333 -51 534 -48 230 -116
422 -227 639 -69 136 -128 225 -240 367 -48 61 -105 133 -125 160 -69 90 -305
290 -484 410 -367 248 -894 404 -1349 398 -71 -1 -146 -3 -165 -5z m526 -72
c451 -67 898 -275 1235 -577 96 -86 265 -268 334 -359 190 -253 347 -585 424
-895 53 -215 65 -329 65 -590 0 -254 -12 -366 -61 -575 -55 -233 -175 -520
-307 -732 -183 -296 -436 -556 -724 -744 -308 -201 -621 -321 -977 -375 -166
-25 -504 -25 -665 -1 -345 54 -624 155 -914 331 -610 372 -1032 1009 -1141
1726 -23 149 -30 439 -16 596 29 305 109 587 247 863 137 276 256 442 469 656
188 190 370 320 625 449 289 147 555 219 920 250 92 8 361 -5 486 -23z"/>
<path d="M2588 4790 c-48 -48 -36 -74 66 -153 40 -31 45 -61 13 -81 -22 -14
-67 9 -82 42 -14 32 -25 27 -25 -13 0 -42 23 -55 96 -55 73 0 116 61 84 121
-6 10 -35 35 -65 54 -59 37 -71 66 -36 85 25 13 68 -5 76 -32 6 -18 25 -25 25
-9 0 5 3 17 6 25 4 12 -4 20 -30 31 -56 24 -93 19 -128 -15z"/>
<path d="M2313 4803 c-63 -4 -78 -15 -48 -37 20 -14 34 -209 16 -220 -25 -16
-8 -26 43 -26 57 0 78 13 53 33 -16 13 -30 97 -16 97 4 0 27 -28 50 -61 40
-59 43 -61 76 -56 46 8 51 14 27 31 -10 8 -33 33 -51 58 l-31 44 24 21 c43 39
26 96 -34 113 -20 5 -39 9 -42 8 -3 -1 -33 -3 -67 -5z m85 -35 c20 -20 14 -65
-10 -82 -12 -9 -25 -12 -29 -8 -6 6 -13 71 -10 95 2 11 36 8 49 -5z"/>
<path d="M2816 4791 c-4 -5 1 -14 10 -19 14 -8 15 -19 3 -107 -10 -73 -18
-102 -33 -116 -11 -10 -17 -21 -14 -24 2 -3 34 -8 69 -11 64 -7 64 -7 46 13
-16 19 -17 28 -5 114 8 63 18 99 30 111 24 24 23 25 -12 32 -16 3 -43 9 -59
12 -16 3 -32 1 -35 -5z"/>
<path d="M2063 4757 c-98 -23 -120 -34 -86 -43 17 -5 25 -20 37 -77 28 -128
29 -136 16 -152 -7 -9 -11 -18 -8 -20 2 -3 51 6 109 19 l104 23 3 37 c4 43 -7
46 -36 7 -24 -34 -69 -48 -88 -29 -6 7 -15 32 -19 56 -7 42 -7 42 24 42 16 0
33 -4 36 -10 3 -5 11 -10 17 -10 10 0 4 78 -7 89 -3 2 -16 -8 -29 -22 -42 -45
-65 -29 -66 46 0 25 3 27 39 27 22 0 43 -4 46 -10 3 -5 11 -10 16 -10 13 0 7
53 -6 56 -5 1 -51 -8 -102 -19z"/>
<path d="M2990 4745 c-17 -45 -6 -62 20 -30 12 14 61 21 72 9 6 -5 -7 -63 -38
-171 -11 -41 -19 -53 -34 -53 -41 0 -18 -16 46 -33 69 -19 90 -16 59 7 -18 13
-17 17 10 120 23 86 31 106 47 106 22 0 58 -34 58 -55 0 -26 20 -16 22 10 0
14 1 30 2 37 1 6 -43 23 -99 38 -168 45 -154 44 -165 15z"/>
<path d="M1873 4707 c-42 -16 -49 -24 -24 -32 27 -8 34 -37 26 -104 l-7 -56
-54 58 c-41 43 -52 62 -45 71 6 7 8 15 5 19 -6 6 -92 -21 -98 -32 -7 -10 201
-227 209 -219 4 4 11 67 14 140 4 73 11 141 15 151 9 20 4 20 -41 4z"/>
<path d="M3307 4674 c-4 -4 -2 -13 3 -20 6 -6 15 -47 20 -90 9 -89 -4 -142
-40 -151 -32 -8 -24 -18 36 -42 57 -24 76 -23 54 4 -23 27 13 86 85 139 35 25
68 46 75 46 22 0 4 24 -29 38 -33 13 -33 13 -27 -12 5 -22 0 -30 -35 -56 -23
-16 -45 -27 -50 -24 -5 3 -9 28 -9 55 0 42 3 51 22 58 21 8 20 9 -17 28 -52
27 -80 35 -88 27z"/>
<path d="M1563 4582 c-29 -14 -53 -29 -53 -32 0 -3 10 -10 22 -15 32 -14 114
-184 100 -206 -18 -29 -2 -29 54 -1 58 28 65 37 35 45 -13 3 -37 39 -66 98
-38 75 -45 97 -36 111 17 28 0 28 -56 0z"/>
<path d="M1423 4509 c-37 -23 -42 -39 -15 -39 11 0 26 -8 34 -17 21 -25 61
-93 57 -97 -2 -2 -51 11 -109 29 l-104 32 -33 -21 c-35 -23 -38 -41 -7 -41 13
0 36 -26 72 -80 42 -63 52 -86 48 -107 -7 -35 -1 -35 47 -2 40 27 41 38 4 39
-15 0 -34 18 -61 57 -22 32 -37 60 -34 64 3 3 61 -11 128 -31 67 -20 126 -33
131 -28 4 4 -21 53 -57 108 -52 81 -63 105 -58 128 7 32 0 33 -43 6z"/>
<path d="M3689 4471 c8 -14 0 -35 -41 -102 -28 -46 -52 -85 -54 -87 -1 -2 -10
-5 -20 -6 -32 -5 -25 -21 21 -49 56 -33 67 -34 60 -4 -7 29 93 192 118 192 29
0 20 16 -25 46 -51 34 -74 38 -59 10z"/>
<path d="M3836 4393 c-3 -3 -3 -15 -1 -27 8 -31 -110 -180 -136 -173 -34 9
-30 -11 8 -42 39 -32 60 -32 42 0 -11 21 2 46 65 123 l24 28 4 -136 c2 -74 8
-140 13 -145 7 -7 36 23 84 84 70 90 80 99 108 96 26 -3 21 18 -11 43 -43 32
-50 33 -42 2 4 -18 -4 -36 -37 -77 l-42 -53 -2 99 c-2 55 -5 109 -8 120 -5 22
-59 68 -69 58z"/>
<path d="M1129 4294 l-34 -37 28 7 c23 6 33 0 72 -41 64 -69 82 -105 67 -137
-14 -32 -56 -59 -79 -52 -30 10 -127 127 -129 155 -1 33 -6 32 -60 -13 -42
-35 -52 -62 -18 -49 11 4 39 -19 89 -72 70 -75 74 -78 109 -72 67 11 116 66
116 131 0 28 -11 49 -59 106 -42 50 -58 76 -54 90 8 30 -9 24 -48 -16z"/>
<path d="M2392 4310 c-343 -36 -660 -170 -942 -397 -307 -248 -541 -651 -616
-1058 -24 -130 -29 -432 -11 -563 9 -57 17 -106 20 -108 2 -2 17 -1 34 2 30 6
30 7 22 50 -22 115 -30 303 -19 430 38 445 211 811 526 1114 192 185 382 300
623 380 150 50 236 67 400 82 577 50 1141 -211 1493 -692 154 -211 255 -449
304 -724 19 -100 24 -376 11 -511 l-8 -80 30 -16 29 -17 11 77 c29 206 23 417
-20 626 -59 290 -218 602 -424 833 -193 216 -485 406 -764 496 -206 67 -491
98 -699 76z"/>
<path d="M4180 4078 c0 -19 -16 -39 -62 -80 -80 -67 -87 -77 -88 -111 0 -52
52 -121 100 -132 37 -8 65 5 139 64 44 36 69 50 82 46 26 -8 24 2 -7 42 -28
37 -38 36 -39 -2 0 -30 -115 -125 -151 -125 -32 0 -74 42 -74 74 0 37 133 148
168 139 21 -5 23 -3 14 13 -6 11 -26 37 -46 59 -35 40 -35 40 -36 13z"/>
<path d="M791 3941 c-42 -42 -56 -83 -46 -133 17 -82 108 -142 179 -118 42 14
89 65 106 115 11 33 10 39 -11 61 -27 28 -47 18 -29 -15 17 -33 8 -72 -22 -94
-24 -18 -32 -19 -68 -8 -60 18 -120 75 -120 115 0 17 4 36 8 42 13 20 54 36
78 30 29 -8 32 10 7 30 -28 21 -40 17 -82 -25z"/>
<path d="M1770 3942 c0 -9 10 -22 23 -27 22 -10 22 -13 22 -195 0 -182 0 -185
-22 -195 -13 -5 -23 -18 -23 -27 0 -16 11 -18 105 -18 98 0 105 1 105 20 0 11
-7 20 -15 20 -30 0 -35 38 -33 212 3 169 4 173 26 183 12 5 22 18 22 27 0 16
-11 18 -105 18 -94 0 -105 -2 -105 -18z"/>
<path d="M2040 3940 c0 -11 6 -20 14 -20 27 0 31 -23 36 -193 l5 -169 37 -33
c58 -53 150 -69 231 -41 93 34 110 72 117 266 l5 155 28 13 c15 7 27 20 27 28
0 11 -17 14 -80 14 -73 0 -80 -2 -80 -20 0 -13 7 -20 19 -20 38 0 43 -22 39
-179 -3 -143 -4 -151 -27 -175 -35 -37 -86 -51 -139 -37 -68 19 -73 33 -70
222 3 162 3 164 26 167 14 2 22 10 22 23 0 18 -8 19 -105 19 -98 0 -105 -1
-105 -20z"/>
<path d="M2570 3945 c0 -9 11 -20 24 -24 13 -5 26 -17 30 -26 3 -9 6 -90 6
-180 0 -169 0 -168 -44 -199 -37 -26 -8 -36 100 -36 93 0 104 2 104 18 0 9
-10 22 -22 27 -23 10 -23 14 -26 198 l-2 187 25 10 c14 5 25 16 25 25 0 12
-18 15 -110 15 -92 0 -110 -3 -110 -15z"/>
<path d="M2840 3940 c0 -11 7 -20 15 -20 28 0 35 -39 35 -188 0 -138 2 -152
23 -183 55 -84 217 -104 301 -38 52 41 61 71 66 239 l5 155 28 13 c15 7 27 20
27 28 0 11 -17 14 -80 14 -63 0 -80 -3 -80 -14 0 -8 12 -21 28 -28 l27 -13 0
-157 0 -157 -28 -29 c-34 -36 -90 -47 -143 -29 -59 19 -64 39 -61 222 2 157 2
160 25 163 14 2 22 10 22 23 0 18 -8 19 -105 19 -98 0 -105 -1 -105 -20z"/>
<path d="M4305 3756 c-17 -7 -43 -28 -58 -45 -22 -26 -27 -42 -27 -84 1 -57 9
-76 59 -132 l33 -38 43 21 c31 15 45 18 54 9 38 -38 5 60 -35 103 -12 12 -14
11 -14 -7 0 -13 -13 -31 -31 -44 l-32 -22 -18 22 c-26 32 -24 74 7 111 53 62
132 80 172 37 23 -24 29 -80 13 -107 -15 -22 -3 -30 25 -18 23 11 25 16 20 53
-8 46 -45 107 -81 131 -34 22 -94 27 -130 10z"/>
<path d="M631 3700 c-17 -28 -31 -53 -31 -56 0 -3 12 -3 26 0 33 9 194 -86
194 -113 0 -37 15 -30 47 21 39 64 40 72 7 64 -34 -9 -194 86 -194 115 0 32
-17 22 -49 -31z"/>
<path d="M535 3534 l-15 -36 65 -64 c36 -36 65 -67 65 -70 0 -6 -79 -4 -131 5
-46 7 -47 7 -63 -26 -18 -38 -21 -63 -6 -63 6 0 10 5 10 10 0 22 36 7 112 -47
45 -31 83 -65 86 -75 6 -25 17 -23 30 7 20 45 12 71 -14 45 -7 -7 -29 3 -67
30 -31 23 -57 43 -57 46 0 3 41 4 90 3 50 -1 94 1 97 5 4 4 -24 38 -62 76 -38
39 -64 70 -57 70 7 0 40 -8 74 -17 41 -12 62 -23 66 -35 7 -29 16 -21 38 36
22 56 21 74 -2 55 -10 -8 -33 -7 -86 6 -98 24 -138 41 -138 59 0 28 -19 17
-35 -20z"/>
<path d="M4540 3407 c-41 -4 -105 -6 -142 -5 -38 2 -68 1 -68 -3 0 -3 5 -21
11 -39 l12 -33 16 22 c9 12 29 23 45 24 24 2 30 -4 43 -37 16 -38 16 -39 -8
-57 -15 -11 -33 -16 -48 -12 -21 5 -22 3 -16 -17 11 -34 35 -90 38 -90 2 0 33
28 68 63 35 34 84 80 108 101 42 37 43 39 30 65 -14 27 -14 27 -89 18z m-10
-58 c-32 -27 -36 -28 -47 -12 -24 32 -16 43 35 43 l47 -1 -35 -30z"/>
<path d="M2090 3251 c-212 -75 -436 -155 -497 -177 -62 -21 -113 -42 -113 -45
0 -3 60 -26 134 -52 73 -25 304 -108 512 -182 l379 -137 85 30 c47 17 278 98
514 181 236 83 431 152 432 154 5 5 -1022 367 -1041 367 -11 -1 -193 -63 -405
-139z"/>
<path d="M4665 3177 c-27 -31 -178 -66 -206 -49 -29 18 -32 15 -24 -25 11 -60
22 -73 34 -41 10 27 40 41 125 55 l38 6 -76 -104 c-42 -56 -76 -110 -76 -120
0 -14 13 -13 117 12 103 25 120 26 134 13 25 -22 30 -17 23 24 -11 59 -18 67
-37 39 -11 -17 -32 -29 -67 -37 -28 -7 -54 -10 -56 -7 -3 3 18 38 48 79 73 98
71 93 63 138 -8 46 -13 48 -40 17z"/>
<path d="M637 3124 c-3 -3 -60 -12 -127 -19 -67 -8 -124 -15 -125 -17 -2 -2
-6 -14 -9 -28 -6 -23 2 -30 85 -80 50 -30 104 -68 120 -83 l29 -28 10 26 c17
46 13 54 -23 48 -45 -7 -62 14 -50 64 8 33 13 38 41 41 22 2 34 -2 38 -12 3
-9 10 -16 15 -16 9 0 29 64 29 93 0 16 -20 23 -33 11z m-113 -111 c-4 -16 -8
-30 -10 -31 -1 -2 -21 7 -45 21 -45 27 -40 33 29 36 30 1 32 -1 26 -26z"/>
<path d="M540 2858 c0 -6 9 -22 21 -34 26 -28 30 -91 7 -108 -12 -9 -42 -10
-110 -3 -76 7 -96 12 -109 29 -16 20 -16 20 -22 -18 -4 -22 -7 -51 -7 -66 0
-29 13 -37 26 -17 5 8 35 9 98 5 108 -8 126 -13 126 -32 0 -8 4 -14 9 -14 11
0 18 41 27 156 l6 91 -32 12 c-41 14 -40 14 -40 -1z"/>
<path d="M3322 2858 c-8 -8 -12 -58 -12 -161 0 -134 -2 -151 -20 -174 -24 -31
-25 -51 -5 -80 13 -19 14 -36 4 -120 -6 -54 -15 -102 -19 -106 -4 -5 -68 -20
-141 -33 -74 -14 -179 -36 -233 -50 -55 -13 -101 -23 -102 -21 -2 2 74 38 169
81 95 44 177 84 184 90 9 9 4 62 -22 240 -19 126 -37 231 -40 234 -2 2 -129
-39 -281 -92 l-277 -97 -304 102 c-168 55 -306 99 -307 98 -3 -4 -57 -456 -56
-475 0 -7 20 -15 45 -19 32 -4 69 -23 123 -61 111 -77 163 -103 271 -131 71
-18 124 -25 203 -26 59 0 106 -2 104 -4 -6 -7 -264 -85 -454 -138 -384 -108
-820 -177 -1122 -178 -168 -1 -246 13 -327 58 -45 25 -56 18 -24 -14 60 -60
171 -85 376 -85 348 -1 742 76 1405 273 336 100 529 150 693 179 102 19 108
19 117 2 8 -15 3 -18 -43 -24 -123 -16 -355 -75 -682 -173 -672 -201 -1050
-278 -1417 -290 -197 -6 -296 4 -390 42 -32 12 -58 20 -58 16 0 -3 14 -48 30
-99 34 -108 64 -250 80 -377 6 -49 16 -100 21 -113 12 -30 76 -57 202 -84 88
-19 132 -22 322 -22 417 0 759 60 1255 219 306 98 487 148 693 190 357 74 594
100 849 93 169 -5 206 -11 299 -52 14 -6 11 12 -16 107 -41 138 -62 239 -80
376 -16 120 -29 140 -109 170 -116 43 -204 56 -381 55 -93 0 -225 -6 -293 -13
-67 -7 -130 -10 -139 -7 -66 26 159 55 425 56 189 0 283 -14 387 -56 33 -14
67 -28 75 -31 10 -4 9 1 -5 17 -69 79 -325 109 -780 90 l-120 -5 -12 93 c-11
78 -10 98 1 120 15 30 6 71 -20 85 -11 6 -14 40 -14 172 0 91 -4 165 -8 165
-4 0 -13 -5 -20 -12z m424 -793 c4 -9 -4 -25 -20 -40 -26 -24 -27 -28 -21 -97
3 -40 7 -134 8 -208 l2 -135 -31 -3 c-29 -3 -39 7 -146 140 -64 79 -125 154
-137 168 l-22 25 5 -132 c3 -72 9 -139 12 -147 3 -9 17 -19 30 -22 15 -4 24
-13 24 -25 0 -16 -8 -19 -55 -21 -30 -1 -63 -2 -72 -2 -26 -1 -29 34 -5 41 29
7 32 30 21 197 -11 185 -13 194 -44 206 -27 10 -33 28 -12 35 6 2 49 6 95 8
l82 5 101 -124 c56 -68 102 -124 102 -124 1 0 0 39 -1 87 -4 95 -19 133 -52
133 -13 0 -20 7 -20 20 0 17 8 20 68 23 37 2 71 4 75 5 4 1 10 -5 13 -13z
m324 -10 c0 -9 -11 -20 -24 -26 -22 -11 -25 -19 -31 -103 -3 -50 -5 -134 -3
-186 3 -87 5 -96 26 -105 12 -5 22 -19 22 -30 0 -19 -6 -20 -117 -18 -110 1
-118 3 -121 21 -2 15 3 21 20 24 l23 3 3 193 2 192 -25 10 c-14 5 -25 16 -25
25 0 13 20 15 125 15 105 0 125 -2 125 -15z m-913 -31 c4 -10 -1 -22 -10 -29
-10 -7 -17 -22 -17 -34 0 -37 69 -333 81 -347 6 -8 20 -14 30 -14 12 0 19 -7
19 -20 0 -14 -9 -20 -37 -25 -21 -3 -63 -11 -93 -16 -115 -23 -110 -23 -110
-1 0 12 9 23 20 27 26 8 25 31 -9 185 l-28 125 -28 -182 c-16 -101 -32 -188
-36 -195 -13 -20 -29 2 -119 162 -61 107 -80 136 -77 110 3 -19 11 -78 18
-130 13 -101 20 -120 50 -120 32 0 24 -39 -8 -45 -16 -3 -45 -9 -65 -14 -21
-4 -40 -6 -43 -3 -9 9 -5 42 5 42 26 0 27 41 5 206 -12 95 -26 177 -29 183 -4
6 -16 11 -27 11 -12 0 -19 7 -19 19 0 16 9 21 48 26 26 4 64 11 85 16 20 6 42
7 47 4 5 -3 35 -55 67 -115 32 -60 60 -104 64 -97 3 7 14 67 24 135 l18 122
31 1 c17 0 51 6 76 13 61 18 60 18 67 0z m-700 -160 c3 -8 1 -20 -6 -27 -19
-19 -13 -41 59 -181 79 -155 87 -197 47 -257 -31 -47 -116 -89 -181 -89 -84 0
-113 27 -190 178 -66 131 -87 159 -106 147 -11 -7 -40 11 -40 25 0 5 21 16 46
26 26 10 73 35 105 55 49 32 59 36 70 23 9 -11 8 -18 -5 -32 -9 -10 -16 -24
-16 -30 0 -21 133 -262 159 -288 21 -21 32 -25 60 -20 47 7 81 42 81 81 0 20
-25 79 -63 154 -79 152 -89 164 -126 156 -20 -4 -30 -2 -34 9 -4 10 12 25 56
50 72 40 76 41 84 20z m-580 -261 c4 -11 -1 -22 -15 -31 -28 -18 -27 -26 4
-202 33 -190 34 -193 81 -185 73 12 90 24 111 76 13 31 27 49 38 49 16 0 16
-30 -2 -122 -6 -30 -6 -30 -219 -68 -66 -11 -127 -23 -136 -26 -25 -7 -32 34
-8 46 25 14 25 50 -2 198 -25 146 -37 192 -49 193 -6 1 -16 2 -22 3 -7 0 -14
11 -16 24 -3 18 1 22 25 23 15 0 64 9 108 18 44 10 84 19 88 20 4 0 11 -7 14
-16z m-432 -40 c4 -10 35 -101 70 -203 79 -231 73 -217 96 -223 11 -3 19 -14
19 -26 0 -20 -5 -21 -130 -21 -121 0 -130 1 -130 19 0 12 9 21 26 25 24 6 26
11 21 44 -3 20 -10 49 -16 65 -10 26 -14 27 -75 27 l-64 0 -16 -47 c-23 -66
-21 -79 15 -92 21 -7 30 -16 27 -28 -3 -15 -15 -18 -83 -18 -67 0 -80 3 -83
17 -2 10 8 22 25 31 24 13 36 38 93 199 38 108 63 196 62 216 l-2 32 69 0 c56
0 70 -3 76 -17z"/>
<path d="M1302 1392 c-12 -38 -22 -71 -22 -75 0 -4 22 -7 49 -7 l50 0 -25 72
c-13 39 -25 73 -27 74 -2 2 -13 -27 -25 -64z"/>
<path d="M4748 2841 c-21 -25 -208 -39 -221 -16 -4 8 -13 15 -19 15 -12 0 -2
-146 13 -196 16 -51 61 -86 116 -91 58 -5 89 10 120 56 20 30 23 46 23 137 0
57 -4 105 -8 108 -5 3 -15 -3 -24 -13z m10 -118 c2 -23 -4 -40 -26 -64 -24
-27 -37 -33 -85 -37 -52 -4 -58 -2 -87 26 -31 32 -40 75 -17 89 12 7 152 21
192 19 15 -1 21 -9 23 -33z"/>
<path d="M480 2557 c-13 -7 -38 -37 -55 -66 -34 -62 -58 -82 -76 -64 -21 21
-13 65 15 89 33 29 33 34 -4 34 -26 0 -31 -5 -41 -41 -17 -55 4 -119 42 -133
45 -15 76 0 105 52 51 88 85 107 104 56 11 -29 -1 -60 -32 -82 -28 -20 -22
-34 14 -30 27 3 33 8 41 38 26 101 -38 186 -113 147z"/>
<path d="M4510 2487 c0 -41 8 -51 26 -32 11 11 21 12 45 3 29 -10 30 -12 23
-52 -3 -22 -12 -44 -18 -48 -19 -13 -54 -9 -60 8 -12 31 -26 1 -26 -57 0 -59
0 -59 23 -45 12 8 75 29 140 46 l117 32 0 34 c0 22 -5 34 -14 34 -19 0 -197
79 -217 96 -26 23 -39 16 -39 -19z m176 -73 c42 -18 39 -21 -28 -38 -26 -6
-28 -4 -28 24 0 35 4 36 56 14z"/>
<path d="M580 2327 c0 -19 -11 -22 -123 -37 -81 -11 -89 -11 -101 5 -7 10 -16
14 -19 9 -9 -16 7 -117 21 -122 6 -2 12 3 12 12 0 16 13 19 135 36 59 8 72 7
87 -7 10 -9 20 -14 23 -11 10 9 -10 121 -22 126 -7 2 -13 -3 -13 -11z"/>
<path d="M819 2135 c-103 -38 -180 -103 -194 -163 -10 -46 18 -96 73 -130 46
-29 119 -58 127 -50 2 2 0 21 -5 43 -15 63 -13 85 8 85 42 0 125 33 159 63 65
57 76 129 24 156 -27 15 -148 12 -192 -4z"/>
<path d="M1053 1888 c-21 -25 -107 -67 -151 -74 -45 -7 -56 -28 -19 -38 12 -3
64 -6 115 -6 104 0 99 -5 79 84 -10 41 -14 47 -24 34z"/>
<path d="M433 1843 c4 -20 -1 -35 -16 -50 l-20 -23 26 0 c20 0 31 -8 43 -31
l16 -31 19 31 c11 18 27 31 39 31 24 0 26 13 5 30 -8 7 -15 26 -15 42 0 26 -2
28 -21 17 -16 -8 -28 -8 -46 0 -34 16 -36 14 -30 -16z"/>
<path d="M4526 1844 c5 -18 0 -32 -17 -50 l-22 -24 26 0 c18 0 32 -9 44 -26
l17 -26 19 26 c12 16 28 26 45 26 l25 0 -21 23 c-12 13 -22 36 -22 50 0 25 -2
27 -21 16 -16 -8 -28 -8 -46 0 -33 15 -34 14 -27 -15z"/>
<path d="M3865 1483 c-268 -22 -676 -97 -950 -174 -60 -17 -210 -65 -335 -106
-464 -153 -822 -216 -1240 -217 -201 -1 -236 2 -330 22 -58 13 -125 32 -150
43 l-45 20 25 -26 c66 -66 277 -100 570 -91 375 11 737 77 1160 211 595 190
1054 283 1475 301 161 7 288 -10 368 -50 26 -13 46 -18 44 -12 -5 20 -111 65
-177 76 -60 9 -320 11 -415 3z"/>
<path d="M4048 1356 l15 -75 40 35 c36 30 116 64 154 64 15 0 16 9 3 30 -7 11
-36 16 -118 18 l-110 4 16 -76z"/>
<path d="M3857 1413 c-9 -2 -61 -48 -115 -101 -162 -161 -329 -275 -523 -357
-386 -163 -821 -176 -1221 -35 -86 30 -116 36 -157 32 -28 -2 -51 -8 -51 -12
0 -10 121 -65 209 -95 411 -140 894 -115 1286 65 212 98 488 308 613 468 l34
42 -29 -1 c-15 -1 -36 -3 -46 -6z"/>
<path d="M4305 1378 c3 -18 9 -49 12 -69 l5 -36 -46 -6 c-85 -12 -176 -79
-192 -142 -8 -32 18 -73 52 -81 89 -23 244 23 317 94 97 94 49 220 -99 261
-55 15 -57 15 -49 -21z"/>
<path d="M3820 940 c-28 -25 -31 -30 -13 -25 18 5 30 -4 64 -47 30 -38 37 -54
27 -56 -8 -2 -57 7 -108 18 l-94 21 -25 -26 c-25 -24 -25 -25 -4 -25 28 0 137
-143 130 -171 -7 -25 2 -24 38 7 29 24 29 24 6 22 -19 -2 -35 10 -72 56 -27
33 -46 62 -44 66 2 4 51 -3 107 -16 99 -22 148 -29 148 -20 0 2 -30 44 -66 92
-50 68 -64 93 -59 111 7 29 6 29 -35 -7z"/>
<path d="M1406 724 c-50 -41 -96 -74 -103 -74 -18 0 -16 -10 5 -26 21 -16 36
-18 27 -4 -9 15 22 60 41 60 29 0 74 -34 74 -55 0 -24 -18 -51 -39 -57 -9 -3
0 -13 25 -28 53 -33 55 -34 48 -16 -3 8 6 67 21 131 22 92 25 118 15 130 -7 8
-15 15 -19 14 -3 0 -46 -34 -95 -75z m74 24 c0 -30 -22 -88 -33 -88 -16 1 -47
25 -47 36 0 10 61 63 73 64 4 0 7 -6 7 -12z"/>
<path d="M3535 739 c-72 -20 -115 -112 -82 -175 29 -56 64 -79 119 -79 44 0
53 4 84 37 29 32 34 45 34 85 0 93 -73 155 -155 132z m34 -23 c31 -17 79 -90
87 -131 12 -67 -43 -106 -94 -68 -33 24 -82 109 -82 143 0 30 8 43 35 58 25
14 25 14 54 -2z"/>
<path d="M1662 680 c-12 -5 -27 -21 -32 -36 -9 -22 -5 -36 25 -89 41 -74 43
-93 13 -104 -33 -12 -65 6 -81 47 -14 35 -15 35 -22 12 -6 -20 -2 -29 26 -52
62 -52 149 -31 149 37 0 11 -16 46 -36 77 -38 62 -39 98 -3 98 34 0 57 -18 64
-52 6 -27 9 -29 17 -14 14 26 4 43 -41 66 -45 22 -47 23 -79 10z"/>
<path d="M3315 625 c-27 -13 -43 -24 -34 -24 23 -1 92 -166 85 -203 l-5 -27
49 21 c28 11 50 25 50 30 0 5 -4 7 -8 4 -16 -10 -31 12 -66 98 -27 68 -33 93
-25 107 5 11 8 19 7 18 -2 0 -25 -11 -53 -24z"/>
<path d="M1855 576 c-28 -20 -23 -69 11 -111 53 -67 60 -81 45 -99 -30 -36
-100 -7 -104 43 -1 11 -4 21 -8 21 -7 0 -22 -50 -17 -55 14 -12 91 -45 106
-45 11 0 31 9 46 21 38 30 34 67 -14 125 -22 27 -40 59 -40 72 0 52 78 38 97
-18 7 -19 12 -30 12 -23 1 6 4 18 7 27 4 10 -5 22 -28 36 -38 23 -86 26 -113
6z"/>
<path d="M3115 555 c-95 -28 -110 -35 -113 -55 -2 -12 1 -27 7 -33 8 -8 11 -5
11 11 0 24 42 57 63 49 8 -3 26 -49 41 -102 22 -76 25 -99 16 -111 -15 -17 -9
-17 44 -2 49 14 69 28 38 28 -18 0 -24 11 -42 73 -12 39 -25 85 -30 101 -6 15
-7 32 -4 37 9 15 66 10 86 -8 21 -18 23 -8 5 23 l-12 21 -110 -32z"/>
<path d="M2075 487 c-56 -56 -59 -135 -6 -188 36 -35 87 -45 134 -26 43 18 67
53 74 106 11 84 -37 141 -119 141 -43 0 -55 -5 -83 -33z m121 15 c35 -23 41
-73 19 -150 -39 -132 -151 -87 -124 49 4 24 8 47 9 50 0 4 9 18 21 33 20 25
53 33 75 18z"/>
<path d="M2833 457 c0 -23 1 -34 4 -24 7 27 17 20 40 -27 24 -49 22 -56 -19
-56 -25 0 -28 4 -29 33 -1 21 -6 9 -15 -38 -7 -38 -18 -78 -24 -87 -9 -16 -6
-18 21 -18 31 0 32 1 15 19 -14 16 -16 26 -9 48 8 24 16 28 51 31 33 3 43 -1
52 -18 7 -12 10 -31 7 -41 -4 -15 0 -19 21 -18 29 1 84 16 65 18 -6 1 -38 50
-70 111 -50 95 -61 110 -83 110 -23 0 -25 -4 -27 -43z"/>
<path d="M2432 479 c-97 -21 -136 -160 -61 -223 36 -30 80 -40 133 -29 32 7
41 14 47 36 9 35 4 34 -31 -3 -15 -16 -37 -30 -48 -30 -31 0 -71 38 -83 80
-35 118 66 214 136 128 l26 -33 -3 30 c-3 25 -9 31 -43 40 -22 7 -55 8 -73 4z"/>
<path d="M2600 474 c0 -4 7 -12 15 -18 10 -7 16 -40 21 -104 6 -82 5 -95 -12
-114 -18 -20 -18 -21 -1 -15 10 4 37 7 60 7 34 0 38 2 25 13 -11 8 -18 38 -22
106 -6 80 -4 96 10 112 17 18 15 19 -39 19 -32 0 -57 -3 -57 -6z"/>
</g>
</svg>
